<svg width="118" height="18" viewBox="0 0 118 18" fill="none" xmlns="http://www.w3.org/2000/svg">
<g clip-path="url(#clip0_2_250)">
<path d="M24.3867 2.77716C23.2067 2.77716 22.2234 2.88002 21.2892 2.98287V15.12C22.2234 15.2229 23.305 15.3257 24.485 15.3257C28.91 15.3257 31.1225 12.24 31.1225 8.94859C31.1717 5.76002 28.8609 2.77716 24.3867 2.77716ZM24.6817 14.1429C23.7475 14.1429 23.1084 14.0914 22.6167 13.9886V4.06288C23.0592 3.96002 23.7967 3.90859 24.5342 3.90859C27.9759 3.90859 29.795 6.06859 29.795 8.89716C29.7459 11.88 28.1725 14.1429 24.6817 14.1429Z" fill="#D9A563"/>
<path d="M36.285 2.88004H35.0067V15.2743H36.285V2.88004Z" fill="#D9A563"/>
<path d="M43.5125 8.22859C42.0375 7.56002 41.4967 6.84002 41.4967 5.96574C41.4967 4.83431 42.2342 3.9086 43.7584 3.9086C44.545 3.9086 45.3317 4.21717 45.8725 4.68002L46.4625 3.5486C45.7742 3.03431 44.84 2.72574 43.8075 2.72574C41.6442 2.72574 40.1692 4.32002 40.1692 6.12002C40.1692 7.61145 40.9067 8.58859 42.9717 9.51431C44.8892 10.3886 45.3317 11.0572 45.3317 12.1372C45.3317 13.2686 44.6434 14.2972 43.1192 14.2972C42.185 14.2972 41.1525 13.8857 40.2675 13.2172L39.6284 14.4C40.6609 15.12 41.6934 15.5315 43.07 15.5315C45.135 15.5315 46.7084 13.9886 46.7084 11.9829C46.6592 10.2343 45.9709 9.36002 43.5125 8.22859Z" fill="#D9A563"/>
<path d="M49.3142 4.06289H53.2475V15.2229H54.5259V4.06289H58.4592V2.88004H49.3142V4.06289Z" fill="#D9A563"/>
<path d="M63.0808 2.88004H61.8025V15.2743H63.0808V2.88004Z" fill="#D9A563"/>
<path d="M68.6367 2.88004H67.3583V15.2229H74.2417V14.04H68.6367V2.88004Z" fill="#D9A563"/>
<path d="M78.7159 2.88004H77.3884V15.2229H84.3209V14.04H78.7159V2.88004Z" fill="#D9A563"/>
<path d="M87.4675 15.2229H94.4V14.04H88.7459V9.56575H93.81V8.33147H88.7459V4.06289H94.4V2.88004H87.4675V15.2229Z" fill="#D9A563"/>
<path d="M105.61 6.53144C105.61 4.42287 104.086 2.82858 101.038 2.82858C100.054 2.82858 99.1692 2.93144 98.3334 3.0343V15.2743H99.6117V10.3886C100.005 10.3886 100.546 10.44 100.939 10.44C101.234 10.44 101.48 10.44 101.726 10.3886L104.873 15.2743H106.446L103.004 10.1314C104.676 9.56573 105.61 8.28001 105.61 6.53144ZM101.038 9.30858C100.595 9.30858 100.005 9.25715 99.6117 9.20573V4.16573C100.054 4.06287 100.693 4.01144 101.234 4.01144C103.152 4.01144 104.184 5.14287 104.184 6.58287C104.233 8.22858 103.25 9.30858 101.038 9.30858Z" fill="#D9A563"/>
<path d="M116.181 2.88004L112.838 8.58861L109.445 2.88004H108.019L112.149 9.72004V15.2229H113.428V9.77146L117.607 2.88004H116.181Z" fill="#D9A563"/>
<path d="M0.344177 0.874298H4.81834C9.09584 0.874298 12.6358 4.52573 12.6358 9.05144C12.6358 13.5772 9.09584 17.1772 4.81834 17.1772H3.14668" stroke="#D9A563" stroke-width="2.0003" stroke-miterlimit="10"/>
<path d="M4.76917 3.85715C7.47333 3.96 9.68583 6.22286 9.68583 9C9.68583 11.2629 8.21083 13.2686 6.09667 13.9371" stroke="#B96B56" stroke-width="2.0003" stroke-miterlimit="10"/>
<path d="M3.58917 7.40572C3.93334 7.14858 4.32667 6.99429 4.76917 6.99429C5.85084 6.99429 6.73584 7.92001 6.73584 9.05144C6.73584 9.36001 6.68667 9.66858 6.53917 9.97715" stroke="#622852" stroke-width="2.0003" stroke-miterlimit="10"/>
</g>
<defs>
<clipPath id="clip0_2_250">
<rect width="118" height="18" fill="white"/>
</clipPath>
</defs>
</svg>
