<svg width="148" height="22" viewBox="0 0 148 22" fill="none" xmlns="http://www.w3.org/2000/svg">
<path d="M1.56749 9.95398V21.7353H0V9.95398H1.56749Z" fill="#00446A"/>
<path d="M6.18782 9.95398L12.3922 19.5078H12.4247V9.95398H13.9101V21.7353H12.1943L6.0383 12.2801H6.00521V21.7353H4.52106V9.95398H6.18782Z" fill="#00446A"/>
<path d="M22.3505 11.5631C21.8278 11.1832 21.1593 10.9932 20.3455 10.9932C20.0152 10.9932 19.6911 11.0263 19.3712 11.0925C19.0525 11.1587 18.7694 11.269 18.5219 11.4228C18.275 11.5761 18.0706 11.7889 17.9275 12.0417C17.7792 12.2997 17.705 12.6214 17.705 13.0068C17.705 13.3696 17.8123 13.6643 18.0267 13.8892C18.2412 14.1147 18.5274 14.2992 18.8846 14.4426C19.2425 14.5854 19.6463 14.7036 20.0979 14.7974C20.5489 14.8905 21.0079 14.9922 21.4755 15.1025C21.943 15.2128 22.4026 15.3415 22.8536 15.4898C23.3046 15.6387 23.7084 15.8391 24.0663 16.0922C24.4235 16.3453 24.7097 16.6645 24.9242 17.0493C25.1387 17.4354 25.2459 17.9189 25.2459 18.5016C25.2459 19.1285 25.1056 19.6647 24.8255 20.1108C24.5512 20.55 24.1818 20.9221 23.7446 21.1997C23.2907 21.4859 22.7913 21.6923 22.2678 21.81C21.723 21.9363 21.1807 22 20.6427 22C19.9821 22 19.3577 21.9173 18.7694 21.7524C18.1812 21.587 17.664 21.3376 17.2185 21.0018C16.7696 20.6624 16.4075 20.2214 16.1621 19.7149C15.9041 19.1922 15.7748 18.5733 15.7748 17.8582H17.2595C17.2595 18.3527 17.3558 18.7798 17.5482 19.1365C17.7318 19.484 17.9913 19.7858 18.3074 20.0195C18.6372 20.2581 19.0095 20.4318 19.4043 20.5312C19.8228 20.6415 20.2517 20.696 20.6917 20.696C21.0435 20.696 21.3983 20.6635 21.7561 20.5979C22.0944 20.5385 22.4206 20.424 22.7219 20.2591C23.0038 20.1033 23.2419 19.8791 23.4143 19.6071C23.5902 19.3326 23.6784 18.9802 23.6784 18.5513C23.6784 18.1444 23.5712 17.8141 23.3567 17.561C23.1422 17.3079 22.8561 17.1014 22.4988 16.9421C22.1085 16.7723 21.702 16.6423 21.2855 16.5542C20.8345 16.4556 20.3755 16.3538 19.908 16.2491C19.4444 16.1456 18.9849 16.0246 18.5304 15.8863C18.1035 15.7597 17.6954 15.5765 17.3171 15.3415C16.9657 15.1224 16.6716 14.8226 16.4593 14.4671C16.2448 14.1098 16.1375 13.6613 16.1375 13.122C16.1375 12.5283 16.2583 12.0141 16.5003 11.5791C16.7424 11.1446 17.0641 10.7874 17.4661 10.5067C17.8825 10.2194 18.346 10.0072 18.8356 9.87982C19.3496 9.74181 19.8795 9.67237 20.4117 9.67332C21.0165 9.67332 21.5772 9.74501 22.0944 9.88779C22.5888 10.0198 23.0516 10.2498 23.4554 10.5643C23.8486 10.8759 24.1648 11.2739 24.3794 11.7274C24.6055 12.1955 24.7287 12.7538 24.7508 13.4027H23.266C23.1778 12.5558 22.8726 11.9424 22.3505 11.5631Z" fill="#00446A"/>
<path d="M29.107 9.95398V21.7353H27.5396V9.95398H29.107Z" fill="#00446A"/>
<path d="M38.8429 21.5956C38.1871 21.8598 37.4872 21.997 36.7802 22C35.8997 22 35.1135 21.8376 34.421 21.5128C33.7476 21.2033 33.1461 20.7567 32.655 20.2015C32.1675 19.6461 31.7919 19.0017 31.5489 18.3037C31.2958 17.5884 31.1673 16.835 31.169 16.0763C31.169 15.2184 31.2879 14.4009 31.5244 13.6252C31.761 12.85 32.1127 12.1704 32.5803 11.5877C33.0538 10.9998 33.6511 10.5236 34.3297 10.193C35.0283 9.84676 35.8445 9.67334 36.7802 9.67334C37.4175 9.67334 38.0199 9.74749 38.5867 9.89578C39.1535 10.0447 39.6591 10.2788 40.1046 10.5974C40.556 10.9229 40.9377 11.3354 41.2272 11.8107C41.5293 12.2997 41.7358 12.891 41.8461 13.5841H40.278C40.2014 13.1331 40.058 12.7452 39.849 12.421C39.6474 12.1043 39.3835 11.8318 39.0733 11.6201C38.7528 11.4058 38.3986 11.2469 38.0254 11.1501C37.619 11.0439 37.2003 10.9913 36.7802 10.9939C36.0645 10.9939 35.4517 11.1367 34.9401 11.4228C34.4407 11.6979 34.0116 12.0846 33.6863 12.5528C33.3532 13.0391 33.1099 13.5812 32.9681 14.1534C32.8137 14.7533 32.7377 15.3667 32.7377 15.9935C32.7377 16.61 32.8254 17.2007 33.0012 17.7675C33.1771 18.3344 33.4357 18.8344 33.777 19.2688C34.1172 19.703 34.548 20.0576 35.0393 20.3081C35.5394 20.5673 36.1203 20.696 36.7796 20.696C37.3961 20.696 37.9408 20.598 38.4133 20.3988C38.8659 20.2152 39.2739 19.9369 39.6101 19.5826C39.9342 19.2358 40.1793 18.8289 40.3442 18.3613C40.5096 17.8938 40.5807 17.3907 40.5586 16.8514H36.7962V15.5315H41.9619V21.7353H40.9704L40.558 20.2665C40.096 20.8829 39.5237 21.3253 38.8422 21.595L38.8429 21.5956Z" fill="#00446A"/>
<path d="M45.8384 9.95398V15.0198H52.0434V9.95398H53.6108V21.7353H52.0434V16.3391H45.8384V21.7353H44.2715V9.95398H45.8384Z" fill="#00446A"/>
<path d="M54.9307 11.2739V9.95398H64.3528V11.2739H60.4249V21.7359H58.8574V11.2739H54.9307Z" fill="#00446A"/>
<path d="M73.4416 21.7353H65.359C65.37 20.7548 65.6072 19.8988 66.0698 19.1653C66.5313 18.4324 67.1624 17.7957 67.9633 17.2546C68.3463 16.9728 68.7465 16.6995 69.1644 16.4341C69.5682 16.1788 69.9523 15.8934 70.3133 15.5805C70.6472 15.294 70.9378 14.9607 71.1761 14.5909C71.4016 14.2355 71.5199 13.8274 71.5315 13.3653C71.5315 13.1508 71.5058 12.9229 71.4549 12.6802C71.4037 12.4369 71.3032 12.2067 71.1596 12.0037C71 11.7841 70.7915 11.6047 70.5505 11.4798C70.2907 11.3389 69.9524 11.2684 69.5357 11.2684C69.1521 11.2684 68.8341 11.3444 68.5804 11.4963C68.3268 11.6486 68.1171 11.8642 67.9719 12.122C67.8096 12.4146 67.6954 12.7313 67.6336 13.0602C67.5601 13.4217 67.5172 13.8102 67.5062 14.2275H65.579C65.579 13.5737 65.666 12.9676 65.8407 12.4094C66.0159 11.8518 66.2776 11.3695 66.6275 10.9638C66.9785 10.5563 67.4141 10.2301 67.9039 10.0079C68.4057 9.7775 68.9885 9.66168 69.654 9.66168C70.3758 9.66168 70.9788 9.77995 71.4635 10.0171C71.9476 10.2536 72.3398 10.5521 72.6388 10.913C72.9372 11.2745 73.1487 11.6655 73.273 12.0883C73.3968 12.5111 73.4593 12.9143 73.4593 13.2973C73.4593 13.771 73.3858 14.1993 73.2387 14.5823C73.0944 14.9617 72.8952 15.3178 72.6474 15.6393C72.3967 15.9637 72.1133 16.2614 71.8018 16.5279C71.4875 16.797 71.1603 17.0505 70.8213 17.2877C70.4831 17.5249 70.1448 17.7504 69.8066 17.9642C69.4683 18.1787 69.1552 18.3932 68.8678 18.6076C68.5971 18.8068 68.3452 19.0304 68.1153 19.2756C67.9008 19.5066 67.7544 19.7517 67.6759 20.0109H73.4422L73.4416 21.7353Z" fill="#F08B1D"/>
<path d="M77.2941 15.5977V11.2739H80.3629C81.2539 11.2739 81.9065 11.4577 82.3183 11.8266C82.7313 12.1955 82.9372 12.7317 82.9372 13.4358C82.9372 14.1405 82.7313 14.6791 82.3183 15.0529C81.9065 15.4267 81.2539 15.6087 80.3635 15.5977H77.2941ZM75.7266 9.95398V21.7353H77.2941V16.917H80.8911C82.0799 16.928 82.9789 16.6253 83.5892 16.0089C84.1995 15.393 84.5053 14.5351 84.5053 13.4352C84.5053 12.3352 84.1995 11.4798 83.5892 10.8695C82.9789 10.2585 82.0793 9.95337 80.8911 9.95337L75.7266 9.95398Z" fill="#00446A"/>
<path d="M91.2539 15.3832H87.9866V11.2739H91.8814C92.6179 11.2739 93.1517 11.4608 93.482 11.8352C93.8116 12.209 93.9765 12.6931 93.9765 13.2875C93.9765 13.7164 93.9029 14.0657 93.754 14.3354C93.6057 14.605 93.4072 14.8194 93.1596 14.9788C92.9127 15.1381 92.6235 15.2453 92.2932 15.3005C91.9496 15.3566 91.602 15.3843 91.2539 15.3832ZM86.4191 9.95398V21.7353H87.9866V16.7025H91.8152C92.2 16.7025 92.5076 16.7601 92.7387 16.8759C92.9703 16.9911 93.1572 17.1456 93.3 17.338C93.4427 17.5298 93.5475 17.7559 93.6137 18.0145C93.6793 18.2731 93.7344 18.5451 93.7792 18.8313C93.8337 19.1175 93.8668 19.4086 93.8778 19.7058C93.8882 20.0029 93.8993 20.2805 93.9109 20.5391C93.9213 20.7977 93.9458 21.0312 93.9851 21.2401C94.0237 21.4491 94.0978 21.6139 94.2075 21.7353H95.957C95.7898 21.5335 95.6636 21.301 95.5856 21.0508C95.501 20.7839 95.4375 20.5108 95.3957 20.234C95.3511 19.9441 95.3237 19.652 95.3136 19.3589C95.3028 19.0672 95.2865 18.7756 95.2645 18.4845C95.2327 18.2072 95.1856 17.9318 95.1236 17.6597C95.0677 17.4072 94.973 17.165 94.8429 16.9415C94.7129 16.7235 94.5386 16.5352 94.3313 16.3888C94.1168 16.235 93.8386 16.1253 93.4979 16.0591V16.026C94.213 15.8281 94.7326 15.4592 95.0574 14.9206C95.3822 14.3813 95.5446 13.7544 95.5446 13.0393C95.5446 12.0822 95.2278 11.3284 94.5954 10.7782C93.963 10.2285 93.0855 9.95337 91.9641 9.95337L86.4191 9.95398Z" fill="#00446A"/>
<path d="M98.6299 15.8453C98.6299 15.2509 98.7071 14.665 98.8609 14.0878C99.0064 13.5282 99.2525 12.9998 99.5871 12.5283C99.919 12.064 100.354 11.6828 100.857 11.4142C101.375 11.1336 101.991 10.9939 102.706 10.9939C103.421 10.9939 104.037 11.1336 104.554 11.4142C105.058 11.6829 105.492 12.0642 105.824 12.5283C106.159 12.9997 106.405 13.5282 106.55 14.0878C106.859 15.2389 106.859 16.451 106.55 17.6021C106.405 18.1617 106.159 18.6901 105.824 19.1616C105.492 19.6257 105.058 20.0069 104.554 20.2756C104.037 20.5563 103.421 20.696 102.706 20.696C101.99 20.696 101.375 20.5563 100.857 20.2756C100.354 20.007 99.9191 19.6258 99.5871 19.1616C99.2525 18.6901 99.0065 18.1616 98.8609 17.6021C98.7075 17.0291 98.6298 16.4384 98.6299 15.8453ZM97.0624 15.8453C97.0624 16.648 97.1801 17.4207 97.4178 18.1634C97.6416 18.8833 98.0029 19.553 98.4816 20.1353C98.9623 20.7138 99.5649 21.1788 100.246 21.4969C100.951 21.8321 101.77 21.9994 102.706 21.9994C103.641 21.9994 104.46 21.8321 105.165 21.4969C105.846 21.1786 106.449 20.7136 106.929 20.1353C107.408 19.5529 107.77 18.8833 107.994 18.1634C108.231 17.4207 108.35 16.648 108.35 15.8453C108.35 15.0425 108.231 14.2692 107.994 13.5265C107.77 12.8067 107.409 12.1371 106.93 11.5546C106.448 10.9756 105.845 10.5082 105.165 10.185C104.46 9.84369 103.641 9.67334 102.706 9.67334C101.77 9.67334 100.951 9.84369 100.247 10.185C99.543 10.5263 98.9541 10.9828 98.4822 11.5546C98.0031 12.1369 97.6414 12.8065 97.4172 13.5265C97.1791 14.2763 97.0592 15.0586 97.0618 15.8453H97.0624Z" fill="#00446A"/>
<path d="M118.002 9.95398V11.2739H111.831V15.0198H117.243V16.3398H111.831V21.7359H110.263V9.95398H118.002Z" fill="#00446A"/>
<path d="M121.368 9.95398V21.7353H119.8V9.95398H121.368Z" fill="#00446A"/>
<path d="M122.754 11.2739V9.95398H132.176V11.2739H128.248V21.7359H126.681V11.2739H122.754Z" fill="#00446A"/>
<path d="M135.96 0C135.96 0 135.839 0 135.839 0.12133V4.47268C135.839 4.47268 135.839 4.59401 135.96 4.59401H140.312C140.312 4.59401 140.433 4.59401 140.433 4.47268V0.12133C140.433 0.12133 140.433 0 140.312 0H135.96Z" fill="#F08B1D"/>
<path d="M142.594 0C142.594 0 142.473 0 142.473 0.12133V4.47268C142.473 4.47268 142.473 4.59401 142.594 4.59401H146.946C146.946 4.59401 147.067 4.59401 147.067 4.47268V0.12133C147.067 0.12133 147.067 0 146.946 0H142.594Z" fill="#F08B1D"/>
<path d="M135.96 6.63764C135.96 6.63764 135.839 6.63764 135.839 6.75958V11.1103C135.839 11.1103 135.839 11.2323 135.96 11.2323H140.312C140.312 11.2323 140.433 11.2323 140.433 11.1109V6.75897C140.433 6.75897 140.433 6.63702 140.312 6.63702L135.96 6.63764Z" fill="#00446A"/>
<path d="M142.594 6.63764C142.594 6.63764 142.473 6.63764 142.473 6.75958V11.1103C142.473 11.1103 142.473 11.2323 142.594 11.2323H146.946C146.946 11.2323 147.067 11.2323 147.067 11.1109V6.75897C147.067 6.75897 147.067 6.63702 146.946 6.63702L142.594 6.63764Z" fill="#F08B1D"/>
</svg>
