<svg width="92" height="92" viewBox="0 0 92 92" fill="none" xmlns="http://www.w3.org/2000/svg">
<path d="M4.58333 45.8333H22.9167C22.9167 39.7555 25.3311 33.9265 29.6288 29.6288C33.9265 25.3311 39.7555 22.9167 45.8333 22.9167C51.9112 22.9167 57.7402 25.3311 62.0379 29.6288C66.3356 33.9265 68.75 39.7555 68.75 45.8333H87.0833C88.2989 45.8333 89.4647 46.3162 90.3242 47.1758C91.1838 48.0353 91.6667 49.2011 91.6667 50.4167C91.6667 51.6322 91.1838 52.798 90.3242 53.6576C89.4647 54.5171 88.2989 55 87.0833 55H4.58333C3.36776 55 2.20197 54.5171 1.34243 53.6576C0.482885 52.798 0 51.6322 0 50.4167C0 49.2011 0.482885 48.0353 1.34243 47.1758C2.20197 46.3162 3.36776 45.8333 4.58333 45.8333ZM13.75 64.1667H77.9167C79.1322 64.1667 80.298 64.6496 81.1576 65.5091C82.0171 66.3686 82.5 67.5344 82.5 68.75C82.5 69.9656 82.0171 71.1314 81.1576 71.9909C80.298 72.8505 79.1322 73.3333 77.9167 73.3333H13.75C12.5344 73.3333 11.3686 72.8505 10.5091 71.9909C9.64955 71.1314 9.16667 69.9656 9.16667 68.75C9.16667 67.5344 9.64955 66.3686 10.5091 65.5091C11.3686 64.6496 12.5344 64.1667 13.75 64.1667ZM68.75 82.5C69.9656 82.5 71.1314 82.9829 71.9909 83.8424C72.8505 84.702 73.3333 85.8678 73.3333 87.0833C73.3333 88.2989 72.8505 89.4647 71.9909 90.3242C71.1314 91.1838 69.9656 91.6667 68.75 91.6667H22.9167C21.7011 91.6667 20.5353 91.1838 19.6758 90.3242C18.8162 89.4647 18.3333 88.2989 18.3333 87.0833C18.3333 85.8678 18.8162 84.702 19.6758 83.8424C20.5353 82.9829 21.7011 82.5 22.9167 82.5H68.75ZM59.5833 45.8333C59.5833 42.1866 58.1347 38.6892 55.5561 36.1106C52.9774 33.532 49.4801 32.0833 45.8333 32.0833C42.1866 32.0833 38.6892 33.532 36.1106 36.1106C33.532 38.6892 32.0833 42.1866 32.0833 45.8333H59.5833ZM45.8333 0L56.7875 15.675C53.3958 14.4375 49.6833 13.75 45.8333 13.75C41.9833 13.75 38.2708 14.4375 34.8792 15.675L45.8333 0ZM6.14167 22.9167L25.2083 21.3125C22.4583 23.65 19.9833 26.4917 18.0583 29.7917C16.0417 33.1833 14.8958 36.6667 14.2542 40.2875L6.14167 22.9167ZM85.4792 22.9167L77.3667 40.2875C76.725 36.6667 75.4875 33.1375 73.5625 29.7917C71.6375 26.4917 69.2083 23.6042 66.4583 21.2667L85.4792 22.9167Z" fill="#F08B1D"/>
</svg>
